<svg id="Layer_2" data-name="Layer 2" xmlns="http://www.w3.org/2000/svg" xmlns:xlink="http://www.w3.org/1999/xlink" viewBox="0 0 500 500"><defs><style>.cls-1{fill:url(#radial-gradient);}.cls-2{fill:url(#radial-gradient-2);}.cls-3{fill:url(#radial-gradient-3);}.cls-4{opacity:0.8;fill:url(#radial-gradient-4);}.cls-5{fill:url(#radial-gradient-5);}.cls-6{fill:url(#radial-gradient-6);}.cls-7{fill:url(#radial-gradient-7);}.cls-8{fill:url(#radial-gradient-8);}.cls-9{fill:#3d375c;}</style><radialGradient id="radial-gradient" cx="199.87" cy="204.87" r="306.04" gradientUnits="userSpaceOnUse"><stop offset="0" stop-color="#3d375c"/><stop offset="0.55" stop-color="#3e385e"/><stop offset="0.75" stop-color="#433c65"/><stop offset="0.89" stop-color="#4a4370"/><stop offset="1" stop-color="#544c80"/></radialGradient><radialGradient id="radial-gradient-2" cx="296.62" cy="281.4" r="306.04" gradientUnits="userSpaceOnUse"><stop offset="0" stop-color="#3d375c" stop-opacity="0"/><stop offset="0.51" stop-color="#3c365a" stop-opacity="0.04"/><stop offset="0.7" stop-color="#383355" stop-opacity="0.17"/><stop offset="0.83" stop-color="#322d4c" stop-opacity="0.4"/><stop offset="0.94" stop-color="#29253e" stop-opacity="0.73"/><stop offset="1" stop-color="#221f33"/></radialGradient><radialGradient id="radial-gradient-3" cx="251.43" cy="251.43" r="229.25" gradientUnits="userSpaceOnUse"><stop offset="0" stop-color="#fff"/><stop offset="0.23" stop-color="#fec5bb"/><stop offset="0.28" stop-color="#fec5bb" stop-opacity="0.91"/><stop offset="0.46" stop-color="#fec5bb" stop-opacity="0.59"/><stop offset="0.62" stop-color="#fec5bb" stop-opacity="0.34"/><stop offset="0.75" stop-color="#fec5bb" stop-opacity="0.16"/><stop offset="0.86" stop-color="#fec5bb" stop-opacity="0.04"/><stop offset="0.92" stop-color="#fec5bb" stop-opacity="0"/></radialGradient><radialGradient id="radial-gradient-4" cx="314.42" cy="310.11" r="196.04" gradientUnits="userSpaceOnUse"><stop offset="0.37" stop-color="#221f33"/><stop offset="0.51" stop-color="#252137" stop-opacity="0.9"/><stop offset="0.68" stop-color="#2c2843" stop-opacity="0.62"/><stop offset="0.86" stop-color="#393456" stop-opacity="0.15"/><stop offset="0.91" stop-color="#3d375c" stop-opacity="0"/></radialGradient><radialGradient id="radial-gradient-5" cx="183.11" cy="183.11" r="462.35" gradientUnits="userSpaceOnUse"><stop offset="0" stop-color="#fae1dd"/><stop offset="0.13" stop-color="#f7d7d2"/><stop offset="0.35" stop-color="#f0beb6"/><stop offset="0.63" stop-color="#e5968a"/></radialGradient><radialGradient id="radial-gradient-6" cx="237.41" cy="226.9" r="183.47" gradientUnits="userSpaceOnUse"><stop offset="0.52" stop-color="#fae1dd" stop-opacity="0"/><stop offset="0.56" stop-color="#f9ded9" stop-opacity="0.05"/><stop offset="0.64" stop-color="#f6d4cf" stop-opacity="0.17"/><stop offset="0.74" stop-color="#f2c5be" stop-opacity="0.37"/><stop offset="0.87" stop-color="#ecb0a7" stop-opacity="0.65"/><stop offset="1" stop-color="#e5968a"/></radialGradient><radialGradient id="radial-gradient-7" cx="167.34" cy="177.85" r="183.47" gradientUnits="userSpaceOnUse"><stop offset="0" stop-color="#fefcfc" stop-opacity="0.9"/><stop offset="0.05" stop-color="#fefafa" stop-opacity="0.84"/><stop offset="0.16" stop-color="#fdf5f4" stop-opacity="0.67"/><stop offset="0.3" stop-color="#fcedeb" stop-opacity="0.41"/><stop offset="0.48" stop-color="#fae2df" stop-opacity="0.05"/><stop offset="0.5" stop-color="#fae1dd" stop-opacity="0"/></radialGradient><radialGradient id="radial-gradient-8" cx="347.78" cy="332.01" r="183.47" gradientUnits="userSpaceOnUse"><stop offset="0" stop-color="#fdf6f5" stop-opacity="0.9"/><stop offset="0.11" stop-color="#fdf5f3" stop-opacity="0.84"/><stop offset="0.31" stop-color="#fcf1ef" stop-opacity="0.67"/><stop offset="0.6" stop-color="#fbeae8" stop-opacity="0.41"/><stop offset="0.96" stop-color="#fae2de" stop-opacity="0.04"/><stop offset="1" stop-color="#fae1dd" stop-opacity="0"/></radialGradient></defs><circle class="cls-1" cx="250" cy="250" r="249"/><circle class="cls-2" cx="250" cy="250" r="249"/><rect class="cls-3" x="6.38" y="6.38" width="490.1" height="490.1" rx="245.05"/><rect class="cls-4" x="90.39" y="90.39" width="392.08" height="392.08" rx="196.04"/><rect class="cls-5" x="79.9" y="79.9" width="343.07" height="343.07" rx="171.53"/><rect class="cls-6" x="79.9" y="79.9" width="343.07" height="343.07" rx="171.53"/><rect class="cls-7" x="79.9" y="79.9" width="343.07" height="343.07" rx="171.53"/><rect class="cls-8" x="79.9" y="79.9" width="343.07" height="343.07" rx="171.53"/><path class="cls-9" d="M110.28,242.73q-2.19-1.74-2.19-5.87T111,211.93Q114,191.11,114,182.21t-1.23-11.61q8.94.71,11.74,7a30.56,30.56,0,0,1,14.86-3.68q8.1,0,12.8,5a17.54,17.54,0,0,1,4.68,12.4,24.12,24.12,0,0,1-15,22.18,28.57,28.57,0,0,1-11.35,2.19,34.49,34.49,0,0,1-5-.35l-.27-3.68h.71a19.12,19.12,0,0,0,15.77-7.37,17.85,17.85,0,0,0,4-11q0-8.51-6.92-11.22-5.88-2.19-13.15.88v.17q0,3.35-2.5,21.78a237.69,237.69,0,0,0-2.49,30.81,54,54,0,0,0,.52,8.59c-1.87.12-3.1.18-3.68.18Q112.48,244.49,110.28,242.73Z"/><path class="cls-9" d="M177.51,221.44a35.44,35.44,0,0,1-8.24-1c-.06.59-.09,1.49-.09,2.72q0,7.27,2.72,10.95t6.48,3.69a12.74,12.74,0,0,0,7.19-2.28,20.69,20.69,0,0,0,6-6.31c2.1.46,3.16,1.54,3.16,3.24q-7.73,11.84-19.9,11.83a17.44,17.44,0,0,1-12.88-5.65q-5.52-5.66-5.52-15.74a36.19,36.19,0,0,1,2.89-14.33,27.73,27.73,0,0,1,9.2-11.48,23,23,0,0,1,14-4.69q7.66,0,11.26,3.51a12.28,12.28,0,0,1,3.6,9.2q0,8.25-5.74,12.27A23.87,23.87,0,0,1,177.51,221.44Zm3.68-23.58q-4.47,0-7.54,5.52a36.61,36.61,0,0,0-4,13.41h1.31q7.63,0,11.27-3.94a13.5,13.5,0,0,0,3.63-9.47,6.42,6.42,0,0,0-1.18-3.9A4,4,0,0,0,181.19,197.86Z"/><path class="cls-9" d="M213.88,226.43a13.07,13.07,0,0,0,1.53,6.71,4.81,4.81,0,0,0,4.34,2.58q4.13,0,7.85-4.82a37.46,37.46,0,0,0,6-12.36,50.38,50.38,0,0,0,2.23-14.33,92.77,92.77,0,0,0-.52-11c1.75-.11,3-.17,3.68-.17q4.47,0,6.75,1.66c1.51,1.11,2.28,3.1,2.28,6q0,1.67-2.11,13.54a115.08,115.08,0,0,0-2.1,19,28.21,28.21,0,0,0,2.72,12.67q-6.59-1.14-9.65-4.87t-3.06-10.73c0-.82.11-2.4.35-4.74A26.43,26.43,0,0,1,225.71,239q-6,5.08-11.87,5.09a11.53,11.53,0,0,1-9.38-4.34q-3.56-4.34-3.55-12.31a43.13,43.13,0,0,1,2.85-15.47,32.61,32.61,0,0,1,8.54-12.71A18.38,18.38,0,0,1,225,194a19.76,19.76,0,0,1,8.24,1.93q-8.85,3.15-14.11,12.4T213.88,226.43Z"/><path class="cls-9" d="M268.75,214.51q3.15-11.38,7.58-16.78t8.24-5.39a6.48,6.48,0,0,1,5.74,2.85,12.9,12.9,0,0,1,1.93,7.36,14,14,0,0,1-2.68,8.28,8.5,8.5,0,0,1-7.32,3.77,7.63,7.63,0,0,1-2.89-.7,12.85,12.85,0,0,0,2.72-8.24c0-1.87-.76-2.81-2.28-2.81-1.11,0-2.31.78-3.59,2.33a26,26,0,0,0-3.68,6.4A49.9,49.9,0,0,0,269.58,222a74,74,0,0,0-1.18,13.55q0,.87.43,7.45c-1.87.11-3.06.17-3.59.17q-5,0-7.19-1.75t-2.19-5.79q0-1.74,1.84-13.49a127.14,127.14,0,0,0,1.84-18.72,51.89,51.89,0,0,0-1.49-12.84q6.4,2,8.94,5.74a15,15,0,0,1,2.55,8.68A56.32,56.32,0,0,1,268.75,214.51Z"/><path class="cls-9" d="M292.94,237.43a33.77,33.77,0,0,1-.27-5q0-3.42,2.94-26.91t2.94-32.25q0-8.76-1.06-11.39,6.58,1.74,9,5.3t2.41,10q0,3.87-2.54,25.07a299.75,299.75,0,0,0-2.54,34.18c0,1.87.11,4.5.35,7.89q-8-.34-9.91-3.51A9.43,9.43,0,0,1,292.94,237.43Z"/><path class="cls-9" d="M122.29,310.5q-2.19-1.75-2.19-5.88T123,279.69Q126,258.87,126,250t-1.23-11.62q8.94.7,11.75,7a30.45,30.45,0,0,1,14.85-3.69c5.41,0,9.67,1.69,12.8,5a17.52,17.52,0,0,1,4.69,12.41,24.12,24.12,0,0,1-15,22.17,28.61,28.61,0,0,1-11.35,2.19,33.26,33.26,0,0,1-5-.35l-.26-3.68h.7q9.9,0,15.78-7.36a18,18,0,0,0,4-11.05q0-8.49-6.93-11.21-5.86-2.19-13.14.87v.18q0,3.33-2.5,21.78a236.17,236.17,0,0,0-2.5,30.81,53.69,53.69,0,0,0,.53,8.58c-1.87.12-3.1.18-3.68.18Q124.49,312.25,122.29,310.5Z"/><path class="cls-9" d="M180.31,294.19a13,13,0,0,0,1.53,6.71,4.82,4.82,0,0,0,4.34,2.59q4.13,0,7.85-4.82a37.66,37.66,0,0,0,6-12.36A50.49,50.49,0,0,0,202.22,272a92.53,92.53,0,0,0-.52-11c1.75-.12,3-.18,3.68-.18q4.47,0,6.75,1.67c1.51,1.11,2.27,3.09,2.27,6q0,1.67-2.1,13.54a115.08,115.08,0,0,0-2.1,19,28.33,28.33,0,0,0,2.71,12.66q-6.57-1.14-9.64-4.86c-2-2.49-3.06-6.06-3.06-10.74,0-.82.11-2.39.35-4.73a26.52,26.52,0,0,1-8.42,13.41q-6,5.08-11.87,5.08a11.49,11.49,0,0,1-9.38-4.34q-3.55-4.34-3.55-12.31a43.17,43.17,0,0,1,2.85-15.47A32.58,32.58,0,0,1,178.73,267a18.37,18.37,0,0,1,12.71-5.21,19.74,19.74,0,0,1,8.24,1.92q-8.85,3.17-14.11,12.41T180.31,294.19Z"/><path class="cls-9" d="M236.53,281a130.74,130.74,0,0,0-2.19,20.6q0,8.11,1,10.47-6.84-1.74-9.2-5.3c-1.58-2.36-2.37-5.83-2.37-10.38a111.45,111.45,0,0,1,1.4-13.33,110.71,110.71,0,0,0,1.41-15,49,49,0,0,0-.53-8.24c1.29-.12,2.48-.18,3.59-.18,3.39,0,5.75.57,7.06,1.71s2,3.08,2,5.83Q238.68,268.52,236.53,281Z"/><path class="cls-9" d="M259.8,282.27q3.17-11.38,7.59-16.78t8.23-5.39a6.49,6.49,0,0,1,5.75,2.85,12.92,12.92,0,0,1,1.92,7.36,14,14,0,0,1-2.67,8.28,8.48,8.48,0,0,1-7.32,3.77,7.59,7.59,0,0,1-2.89-.7,12.83,12.83,0,0,0,2.72-8.24c0-1.87-.76-2.8-2.28-2.8-1.11,0-2.31.77-3.6,2.32a26.65,26.65,0,0,0-3.68,6.4,50.06,50.06,0,0,0-2.93,10.43,73.85,73.85,0,0,0-1.19,13.54c0,.58.15,3.07.44,7.45-1.87.12-3.07.17-3.59.17q-5,0-7.19-1.75c-1.46-1.17-2.19-3.09-2.19-5.78q0-1.75,1.84-13.5a127.15,127.15,0,0,0,1.84-18.71,52.25,52.25,0,0,0-1.49-12.84q6.4,2,8.94,5.74a15,15,0,0,1,2.54,8.68A55.11,55.11,0,0,1,259.8,282.27Z"/><path class="cls-9" d="M298.24,281a128.39,128.39,0,0,0-2.19,20.6q0,8.11,1,10.47-6.82-1.74-9.2-5.3c-1.58-2.36-2.37-5.83-2.37-10.38a110,110,0,0,1,1.41-13.33,112,112,0,0,0,1.4-15,49,49,0,0,0-.53-8.24q1.94-.18,3.6-.18,5.08,0,7.05,1.71c1.32,1.14,2,3.08,2,5.83Q300.38,268.52,298.24,281Z"/><path class="cls-9" d="M341.75,260.19c3.45,0,5.92,1.06,7.41,3.2s2.23,5,2.23,8.67a98,98,0,0,1-1.7,15.39A95.52,95.52,0,0,0,348,301.86q0,4.51,1.14,6.58A9.36,9.36,0,0,0,353,312c-.76.05-1.84.08-3.24.08q-7.37,0-10.47-2.27t-3.12-8a86.48,86.48,0,0,1,1.76-12.66,85.79,85.79,0,0,0,1.75-14.07q0-5.79-3.51-5.79-2,0-4.55,2.37a27.77,27.77,0,0,0-4.91,6.44,40.43,40.43,0,0,0-3.95,10.47,53.24,53.24,0,0,0-1.57,12.76,61.32,61.32,0,0,0,.52,9.42c-1.87.12-3.1.17-3.68.17q-5,0-7.19-1.75c-1.46-1.17-2.19-3.09-2.19-5.78q0-1.75,1.84-13.5a127.15,127.15,0,0,0,1.84-18.71,51.77,51.77,0,0,0-1.49-12.84q6.4,2,8.94,5.74a14.69,14.69,0,0,1,2.55,8.5,67.61,67.61,0,0,1-1.06,11.09A41.94,41.94,0,0,1,330.36,267Q336.59,260.2,341.75,260.19Z"/><path class="cls-9" d="M386.36,261.06a13.65,13.65,0,0,1,2.55.18c1.51.29,2.33,1.37,2.45,3.24a23.75,23.75,0,0,0-15.21,10.35,30.43,30.43,0,0,0-5.65,17.35q0,10.51,6.4,10.52c2.57,0,4.88-1.41,6.92-4.21q5.43-7.62,7.63-23.84,1.67-12.79,6.22-16.48a16.12,16.12,0,0,1,5.43-2.89,118.28,118.28,0,0,0-1.22,14q0,35.07-7.5,52.68T370,339.6q-6.83,0-10.69-3.64c-2.57-2.43-3.85-5.08-3.85-8a9.7,9.7,0,0,1,2.71-7.1q2.72-2.76,7.63-2.76a10.61,10.61,0,0,1,4.12.88,7.51,7.51,0,0,0-3.33,6.75,8.07,8.07,0,0,0,1.84,5.3,5.63,5.63,0,0,0,4.51,2.24,9.7,9.7,0,0,0,4.69-1.1,13.63,13.63,0,0,0,4.12-3.9,28.18,28.18,0,0,0,3.68-7q3.6-9.73,3.94-26.56a27.31,27.31,0,0,1-7.71,12.1q-5.17,4.55-10.52,4.55a11.74,11.74,0,0,1-10.29-5.12q-3.56-5.13-3.55-13.11a34.7,34.7,0,0,1,4.47-17.26,27.2,27.2,0,0,1,13.84-12.8A28.23,28.23,0,0,1,386.36,261.06Z"/><circle class="cls-9" cx="233.14" cy="251" r="7.12"/><circle class="cls-9" cx="294.67" cy="251" r="7.12"/></svg>